<svg xmlns="http://www.w3.org/2000/svg" width="258" height="100.891" viewBox="0 0 258 100.891">
  <g id="Group_106" data-name="Group 106" transform="translate(-102 -83.37)">
    <g id="Union_2" data-name="Union 2" transform="translate(110.38 114.338)" fill="#30e068">
      <path d="M 67.04910278320313 68.6737060546875 L 9.789300918579102 68.6737060546875 C 5.080711841583252 68.6737060546875 1.250000953674316 64.84299468994141 1.250000953674316 60.13440322875977 C 1.250000953674316 59.48028182983398 1.324034214019775 58.82898330688477 1.470056414604187 58.19859313964844 L 1.529100894927979 57.94368362426758 L 1.480956435203552 57.68650436401367 C 1.327700853347778 56.86788177490234 1.250000953674316 56.02696990966797 1.250000953674316 55.18710327148438 L 1.250000953674316 14.73660469055176 C 1.250000953674316 11.13417148590088 2.652723073959351 7.747393608093262 5.199756622314453 5.200138092041016 C 7.746823310852051 2.652860403060913 11.1334228515625 1.250004768371582 14.7357006072998 1.250004768371582 C 18.33805656433105 1.250004768371582 21.72482299804688 2.652871370315552 24.27213478088379 5.20017147064209 C 26.81943511962891 7.747482776641846 28.2223014831543 11.13424968719482 28.2223014831543 14.73660469055176 L 28.2223014831543 50.3451042175293 L 28.2223014831543 51.5951042175293 L 29.4723014831543 51.5951042175293 L 67.04910278320313 51.5951042175293 C 71.7576904296875 51.5951042175293 75.58840179443359 55.42581558227539 75.58840179443359 60.13440322875977 C 75.58840179443359 64.84299468994141 71.7576904296875 68.6737060546875 67.04910278320313 68.6737060546875 Z" stroke="none"/>
      <path d="M 67.04911041259766 67.42369842529297 C 71.06843566894531 67.42369842529297 74.33840179443359 64.15373229980469 74.33840179443359 60.13440322875977 C 74.33840179443359 56.11506271362305 71.06843566894531 52.84509658813477 67.04911041259766 52.84509658813477 L 29.4723072052002 52.84509658813477 L 26.9723072052002 52.84509658813477 L 26.9723072052002 50.34509658813477 L 26.9723072052002 14.73660182952881 C 26.9723072052002 11.46813201904297 25.69945907592773 8.395273208618164 23.38824844360352 6.084049224853516 C 21.07703590393066 3.772837400436401 18.00417709350586 2.500002145767212 14.7357063293457 2.500002145767212 C 11.46732997894287 2.500002145767212 8.394647598266602 3.772814035415649 6.083683013916016 6.083978652954102 C 3.772706747055054 8.395143508911133 2.500000953674316 11.46803760528564 2.500000953674316 14.73660182952881 L 2.500000953674316 55.18709564208984 C 2.500000953674316 55.95002746582031 2.570530414581299 56.71354293823242 2.709612607955933 57.45647430419922 L 2.805918455123901 57.97085952758789 L 2.687812566757202 58.48069763183594 C 2.563189029693604 59.01869583129883 2.500000953674316 59.5750846862793 2.500000953674316 60.13440322875977 C 2.500000953674316 64.15373229980469 5.769965648651123 67.42369842529297 9.789295196533203 67.42369842529297 L 67.04911041259766 67.42369842529297 M 67.04911041259766 69.92369842529297 L 9.789295196533203 69.92369842529297 C 4.382094860076904 69.92369842529297 8.97216807516088e-07 65.54071044921875 8.97216807516088e-07 60.13440322875977 C 8.97216807516088e-07 59.37150955200195 0.08721265941858292 58.62922668457031 0.2523067891597748 57.91651916503906 C 0.08674207329750061 57.03217697143555 8.97216807516088e-07 56.1194953918457 8.97216807516088e-07 55.18709564208984 L 8.97216807516088e-07 14.73660182952881 C 8.97216807516088e-07 6.597896099090576 6.597001075744629 2.153823061235016e-06 14.7357063293457 2.153823061235016e-06 C 22.8744010925293 2.153823061235016e-06 29.4723072052002 6.597896099090576 29.4723072052002 14.73660182952881 L 29.4723072052002 50.34509658813477 L 67.04911041259766 50.34509658813477 C 72.45539855957031 50.34509658813477 76.83840179443359 54.72809600830078 76.83840179443359 60.13440322875977 C 76.83840179443359 65.54071044921875 72.45539855957031 69.92369842529297 67.04911041259766 69.92369842529297 Z" stroke="none" fill="#2bbbc0"/>
    </g>
    <g id="Union_1" data-name="Union 1" transform="translate(107.391 89.036)" fill="#fcdd09">
      <path d="M 51.67080688476563 73.18540191650391 C 48.21600723266602 73.18540191650391 44.9680061340332 71.84002685546875 42.52509307861328 69.39711761474609 C 40.08217620849609 66.95420074462891 38.7368049621582 63.70619964599609 38.7368049621582 60.25139999389648 L 38.7368049621582 20.84220123291016 L 38.7368049621582 19.59220123291016 L 37.4868049621582 19.59220123291016 L 10.42110633850098 19.59220123291016 C 5.364149570465088 19.59220123291016 1.250006556510925 15.47805786132813 1.250006556510925 10.42110061645508 C 1.250006556510925 5.364143848419189 5.364149570465088 1.250000953674316 10.42110633850098 1.250000953674316 L 51.67080688476563 1.250000953674316 L 92.92140960693359 1.250000953674316 C 97.97836303710938 1.250000953674316 102.0925064086914 5.364143848419189 102.0925064086914 10.42110061645508 C 102.0925064086914 15.47805786132813 97.97836303710938 19.59220123291016 92.92140960693359 19.59220123291016 L 65.85570526123047 19.59220123291016 L 64.60570526123047 19.59220123291016 L 64.60570526123047 20.84220123291016 L 64.60570526123047 60.25139999389648 C 64.60570526123047 63.70623016357422 63.26030731201172 66.95423126220703 60.81733322143555 69.39710235595703 C 58.37429046630859 71.84001159667969 55.12600708007813 73.18540191650391 51.67080688476563 73.18540191650391 Z" stroke="none"/>
      <path d="M 51.67080307006836 71.93540954589844 C 54.79211044311523 71.93540954589844 57.72652816772461 70.72003936767578 59.93346405029297 68.51319122314453 C 62.14032745361328 66.30642700195313 63.35570907592773 63.372314453125 63.35570907592773 60.25139236450195 L 63.35570907592773 20.84220886230469 L 63.35570907592773 18.34220886230469 L 65.855712890625 18.34220886230469 L 92.92140197753906 18.34220886230469 C 97.28910827636719 18.34220886230469 100.8424987792969 14.78880882263184 100.8424987792969 10.42110061645508 C 100.8424987792969 6.053393363952637 97.28910827636719 2.500008583068848 92.92140197753906 2.500008583068848 L 51.67080307006836 2.500008583068848 L 10.4210958480835 2.500008583068848 C 6.053387641906738 2.500008583068848 2.500003337860107 6.053393363952637 2.500003337860107 10.42110061645508 C 2.500003337860107 14.78880882263184 6.053387641906738 18.34220886230469 10.4210958480835 18.34220886230469 L 37.4868049621582 18.34220886230469 L 39.9868049621582 18.34220886230469 L 39.9868049621582 20.84220886230469 L 39.9868049621582 60.25139236450195 C 39.9868049621582 63.37229919433594 41.20215606689453 66.30641174316406 43.40897369384766 68.51323699951172 C 45.61578750610352 70.72005462646484 48.54989624023438 71.93540954589844 51.67080307006836 71.93540954589844 M 51.67080307006836 74.43540954589844 C 43.83720397949219 74.43540954589844 37.4868049621582 68.08499145507813 37.4868049621582 60.25139236450195 L 37.4868049621582 20.84220886230469 L 10.4210958480835 20.84220886230469 C 4.665603160858154 20.84220886230469 3.235802296330803e-06 16.17659378051758 3.235802296330803e-06 10.42110061645508 C 3.235802296330803e-06 4.665608882904053 4.665603160858154 8.650559720990714e-06 10.4210958480835 8.650559720990714e-06 L 51.67080307006836 8.650559720990714e-06 L 92.92140197753906 8.650559720990714e-06 C 98.67691040039063 8.650559720990714e-06 103.3424987792969 4.665608882904053 103.3424987792969 10.42110061645508 C 103.3424987792969 16.17659378051758 98.67691040039063 20.84220886230469 92.92140197753906 20.84220886230469 L 65.855712890625 20.84220886230469 L 65.855712890625 60.25139236450195 C 65.855712890625 68.08499145507813 59.50529479980469 74.43540954589844 51.67080307006836 74.43540954589844 Z" stroke="none" fill="#2bbbc0"/>
    </g>
    <text id="Math" transform="translate(186 111.37)" fill="#da121a" font-size="60" font-family="ArialRoundedMTBold, Arial Rounded MT"><tspan x="0" y="57">Math</tspan></text>
    <rect id="Rectangle_37" data-name="Rectangle 37" width="258" height="95" transform="translate(102 83.37)" fill="none"/>
  </g>
</svg>
