<svg xmlns="http://www.w3.org/2000/svg" xmlns:xlink="http://www.w3.org/1999/xlink" width="552" height="555" viewBox="0 0 552 555"><defs><style>.a{clip-path:url(#c);}.b{fill:#ff0;stroke:#000;stroke-width:0.567px;}.b,.f{stroke-miterlimit:10;}.c{fill:red;}.d{fill:#f63;}.e{fill:#060;}.f{fill:none;stroke:#060;stroke-width:9.75px;}.g{fill:url(#a);}</style><linearGradient id="a" x1="0.5" x2="0.5" y2="1" gradientUnits="objectBoundingBox"><stop offset="0" stop-color="#dcda9f"/><stop offset="0.036" stop-color="#f59bac"/><stop offset="0.58" stop-color="#aaecb3"/><stop offset="1" stop-color="#5ffbf1"/></linearGradient><clipPath id="c"><rect width="552" height="555"/></clipPath></defs><g id="b" class="a"><rect class="g" width="552" height="555"/><g transform="translate(18.047 104.82)"><rect class="b" width="367.435" height="9.664" transform="translate(145.515 136.627)"/><path d="M10.831,122.222l20.438-3.642a62.631,62.631,0,0,1,7.843,19.831,149.559,149.559,0,0,1,8.659-12.291c2.627-3.13,4.771-5.188,6.468-6.117a10.862,10.862,0,0,1,5.425-1.423A6.443,6.443,0,0,1,64.6,120.4a6.812,6.812,0,0,1,1.745,4.884,6.616,6.616,0,0,1-1.745,4.742,5.583,5.583,0,0,1-4.3,1.868,16.714,16.714,0,0,1-4.3-.7,16.045,16.045,0,0,0-3.367-.7,7.461,7.461,0,0,0-4.676,1.821Q44.9,134.8,40.478,142.9q4.979,18.153,7.957,22.127c1.176,1.565,2.352,2.362,3.576,2.362a4.392,4.392,0,0,0,2.646-.8c1.129-.844,2.845-2.94,5.226-6.335l2.105,1.261c-3.433,5.747-6.781,9.769-10.063,12.1a12.488,12.488,0,0,1-7.369,2.731,10.986,10.986,0,0,1-6.241-1.707,14.4,14.4,0,0,1-4.41-5.634,88.106,88.106,0,0,1-4.571-12.5q-6.857,9.005-10.736,13.155a26.128,26.128,0,0,1-6.468,5.415,12.276,12.276,0,0,1-5.491,1.261A6.435,6.435,0,0,1,1.8,174.518,6.3,6.3,0,0,1,0,169.8a6.94,6.94,0,0,1,1.925-5.074,6.585,6.585,0,0,1,4.9-2.011,7.92,7.92,0,0,1,3.576.977,11.229,11.229,0,0,0,4.2,1.451,6.421,6.421,0,0,0,3.025-.721,17.555,17.555,0,0,0,4.458-3.945c1.11-1.242,3.1-3.9,6.041-7.967q-5.634-21.553-8.792-25.768a5.991,5.991,0,0,0-5.046-2.731,20.71,20.71,0,0,0-3.87.465l.408-2.286Z" transform="translate(0 -6.004)"/><path class="c" d="M89.97,144.982V135.27h49.669v9.712Zm0,17.337v-9.712h49.669v9.712Z" transform="translate(-4.641 -6.865)"/><g transform="translate(122.45 2.18)"><path d="M239.529,45.25l-9.636,33.564a31.467,31.467,0,0,1,7.331-6.364,13.438,13.438,0,0,1,6.411-1.593c4.477,0,7.786,1.612,10,4.818a19.083,19.083,0,0,1,3.329,11.1q0,15.023-10.926,26.831-9.674,10.414-22.041,10.4-9.19,0-19.414-5.4L221.6,59.524a24.825,24.825,0,0,0,1.223-5.719,2.5,2.5,0,0,0-1.119-2.124,7.461,7.461,0,0,0-4.733-.92l.6-2.238,18.6-3.272h3.357Zm-21.377,74.043a8.887,8.887,0,0,0,4.733,1.679,9.767,9.767,0,0,0,4.941-1.157,23.322,23.322,0,0,0,6.639-6.857,45.445,45.445,0,0,0,5.823-11.978A44.293,44.293,0,0,0,242.63,87q0-3.969-1.783-5.994a5.3,5.3,0,0,0-4.126-2.068c-2.6,0-4.856,1.271-6.791,3.784-1.309,1.631-2.712,5.121-4.239,10.4l-7.568,26.167h.028Z" transform="translate(-133.003 -4.402)"/><path d="M476.51,73.338l-10.793,37.026-1.119,4.514a8,8,0,0,0-.171,1.223,1.755,1.755,0,0,0,.474,1.186,1.409,1.409,0,0,0,.967.493c.778,0,1.868-.579,3.225-1.783a41.558,41.558,0,0,0,4-5.121l1.954,1.015c-2.646,4.818-5.463,8.318-8.431,10.537a15.929,15.929,0,0,1-9.655,3.31,6.669,6.669,0,0,1-4.837-1.631,5.61,5.61,0,0,1-1.679-4.173,33.646,33.646,0,0,1,1.783-8.062l1.337-4.514c-4.325,7.4-8.431,12.623-12.405,15.7a11.816,11.816,0,0,1-7.35,2.684,7.818,7.818,0,0,1-7.417-4.192,19.581,19.581,0,0,1-2.276-9.5q0-7.839,4.8-17.991A44.793,44.793,0,0,1,441.495,77.71c4.277-3.414,8.28-5.14,12.016-5.14a6.977,6.977,0,0,1,5.008,1.8c1.242,1.223,2.191,3.414,2.769,6.62l2.02-6.857,13.183-.778Zm-17.8,10.575c0-3.006-.474-5.178-1.394-6.516A3.178,3.178,0,0,0,454.6,76a5.394,5.394,0,0,0-3.566,1.679c-2.494,2.3-5.159,6.942-8.043,14-2.864,7.028-4.325,13.1-4.325,18.229a7.271,7.271,0,0,0,.967,4.258,2.7,2.7,0,0,0,2.153,1.309c1.679,0,3.357-.967,5.074-2.883a45.951,45.951,0,0,0,6.62-10.082q5.264-10.442,5.245-18.579Z" transform="translate(-144.328 -5.811)"/><path d="M524.844,110.473l1.679,1.508a40.5,40.5,0,0,1-10.641,9.456,28.391,28.391,0,0,1-14.425,4,18.113,18.113,0,0,1-8.877-2.153,13.048,13.048,0,0,1-5.7-5.994,18.344,18.344,0,0,1-1.849-7.929A36.128,36.128,0,0,1,490,91.429a38.636,38.636,0,0,1,13.069-13.98c5.444-3.414,10.746-5.159,15.971-5.159,4.192,0,7.35.92,9.456,2.8a8.789,8.789,0,0,1,3.187,6.9,9.058,9.058,0,0,1-2.39,6.345,7.1,7.1,0,0,1-5.33,2.627,5.881,5.881,0,0,1-4.258-1.679,5.342,5.342,0,0,1-1.7-3.955,6.382,6.382,0,0,1,3.006-5.245c1.375-1.034,2.039-1.935,2.039-2.712a1.836,1.836,0,0,0-.835-1.612,4.57,4.57,0,0,0-2.883-.9,12.744,12.744,0,0,0-8.792,3.784,32.593,32.593,0,0,0-8.346,12.68,41.443,41.443,0,0,0-2.9,14.6,12.493,12.493,0,0,0,2.95,8.706,9.233,9.233,0,0,0,7.028,3.272,19.2,19.2,0,0,0,7.7-1.849,26.155,26.155,0,0,0,7.891-5.567h-.019Z" transform="translate(-147.47 -5.797)"/><path class="d" d="M296.05,112.168V105.15h39.568v7.018Z" transform="translate(-137.721 -7.492)"/><path d="M394.688,124.638V109.957h-30V97.419L396.822,49.96h11.912V97.191h8.934v12.766h-8.934v14.681Zm0-27.438V71.8L377.617,97.191h17.071Z" transform="translate(-141.262 -4.645)"/><path class="e" d="M290.846,59.156V68.09H257.13a23.034,23.034,0,0,1,3.31-9.6c1.811-3.025,5.434-7.037,10.812-12.026,4.353-4.031,7-6.781,7.976-8.213a10.605,10.605,0,0,0,1.982-5.89,6.748,6.748,0,0,0-1.726-4.951,7.37,7.37,0,0,0-9.579.085c-1.176,1.214-1.878,3.225-2.049,6.032l-9.579-.958c.579-5.292,2.371-9.086,5.378-11.409A18.049,18.049,0,0,1,274.96,17.71c4.951,0,8.849,1.347,11.665,4.012a13.107,13.107,0,0,1,4.239,9.958,17.312,17.312,0,0,1-1.214,6.44,26.068,26.068,0,0,1-3.841,6.421,62.454,62.454,0,0,1-6.288,6.4c-3.025,2.769-4.97,4.647-5.776,5.548a17.711,17.711,0,0,0-1.982,2.665h19.082Z" transform="translate(-135.714 -2.981)"/><path class="e" d="M148.154,71.2,129.11,96l3.689,2.551,8.934-11.6,14.3,33.953h4.211l42.3-112.975H256.8V2.18H198.079L160.91,101.489Z" transform="translate(-129.11 -2.18)"/><line class="f" x2="324.244" transform="translate(68.969 2.551)"/></g><g transform="translate(221.19 156.516)"><path d="M372.606,192.077l-13.42,46.036-1.394,5.615a9.683,9.683,0,0,0-.218,1.527,2.2,2.2,0,0,0,.588,1.47,1.772,1.772,0,0,0,1.2.616c.958,0,2.324-.721,4.012-2.219a51.161,51.161,0,0,0,4.97-6.364l2.437,1.252q-4.936,8.977-10.48,13.1a19.809,19.809,0,0,1-12.007,4.116,8.243,8.243,0,0,1-6.013-2.03,6.961,6.961,0,0,1-2.087-5.188c0-1.793.721-5.131,2.219-10.025l1.66-5.615c-5.378,9.2-10.48,15.7-15.431,19.518a14.68,14.68,0,0,1-9.143,3.338q-6.373,0-9.228-5.216a24.38,24.38,0,0,1-2.836-11.817q0-9.745,5.966-22.383a55.551,55.551,0,0,1,15.639-20.315c5.321-4.249,10.29-6.392,14.947-6.392a8.679,8.679,0,0,1,6.231,2.248c1.555,1.527,2.731,4.249,3.452,8.232l2.513-8.526,16.389-.958ZM350.46,205.231c0-3.746-.588-6.44-1.736-8.1a3.951,3.951,0,0,0-3.367-1.736,6.709,6.709,0,0,0-4.439,2.087c-3.1,2.864-6.421,8.64-10,17.4-3.557,8.744-5.378,16.284-5.378,22.677,0,2.456.4,4.2,1.2,5.292a3.358,3.358,0,0,0,2.675,1.631c2.087,0,4.173-1.2,6.307-3.585a56.856,56.856,0,0,0,8.232-12.538q6.544-12.989,6.525-23.1Z" transform="translate(-237.049 -166.261)"/><path d="M296.081,242.187v16.664H233.22a43.608,43.608,0,0,1,6.146-17.916c3.4-5.624,10.12-13.126,20.135-22.43q12.135-11.281,14.881-15.317a19.772,19.772,0,0,0,3.708-10.983c0-3.974-1.053-7.066-3.225-9.2-2.162-2.162-5.112-3.225-8.906-3.225a11.96,11.96,0,0,0-8.925,3.386c-2.191,2.276-3.49,6-3.841,11.229l-17.859-1.783c1.053-9.873,4.41-16.939,10.015-21.263q8.436-6.459,21.055-6.44c9.228,0,16.474,2.513,21.757,7.464a24.508,24.508,0,0,1,7.9,18.589,32.257,32.257,0,0,1-2.276,12.016,48.983,48.983,0,0,1-7.17,11.96,113.143,113.143,0,0,1-11.741,11.931c-5.653,5.2-9.257,8.659-10.765,10.338a31.4,31.4,0,0,0-3.68,4.979h35.651Z" transform="translate(-233.22 -164.91)"/></g></g></g></svg>