<svg id="Layer_1" data-name="Layer 1" xmlns="http://www.w3.org/2000/svg" viewBox="0 0 1729.99 359.87"><defs><style>.cls-1{fill:#f63;}.cls-2{fill:blue;}.cls-3{fill:red;}.cls-4{fill:#060;}.cls-5{fill:#ff0;stroke:#000;stroke-width:0.57px;}.cls-5,.cls-6{stroke-miterlimit:10;}.cls-6{fill:none;stroke:#060;stroke-width:9.75px;}</style></defs><title>rKYWUIE9RNePWaphZyWS_Quadratic_root_</title><path d="M679.84,88.09l-15.1,52.58q6.88-7.48,11.49-10a21,21,0,0,1,10-2.49c7,0,12.19,2.52,15.66,7.54a29.82,29.82,0,0,1,5.22,17.38q0,23.55-17.11,42-15.15,16.32-34.53,16.31-14.4,0-30.41-8.46l26.68-92.57c1.28-4.34,1.92-7.34,1.92-9a3.93,3.93,0,0,0-1.76-3.33c-1.65-1.15-4.11-1.65-7.41-1.45l1-3.5,29.13-5.12h5.23Zm-33.49,116a14,14,0,0,0,7.41,2.63,15.27,15.27,0,0,0,7.75-1.82c3.34-2,6.8-5.56,10.41-10.75a71.72,71.72,0,0,0,9.13-18.76,69.44,69.44,0,0,0,3.67-21.9q0-6.21-2.8-9.39a8.25,8.25,0,0,0-6.46-3.24c-4.08,0-7.62,2-10.65,5.93-2,2.56-4.24,8-6.63,16.3l-11.86,41Z" transform="translate(0.14 -23.21)"/><path d="M362.89,88.09,347.8,140.67q6.87-7.48,11.49-10a21,21,0,0,1,10-2.49c7,0,12.19,2.52,15.66,7.54a29.82,29.82,0,0,1,5.22,17.38q0,23.55-17.11,42Q358,211.49,338.57,211.48q-14.4,0-30.41-8.46l26.67-92.57c1.29-4.34,1.93-7.34,1.93-9A3.93,3.93,0,0,0,335,98.16c-1.65-1.15-4.11-1.65-7.41-1.45l1-3.5,29.13-5.12h5.22Zm-33.48,116a14,14,0,0,0,7.41,2.63,15.27,15.27,0,0,0,7.75-1.82c3.33-2,6.8-5.56,10.41-10.75a71.72,71.72,0,0,0,9.13-18.76,69.44,69.44,0,0,0,3.67-21.9q0-6.21-2.8-9.39a8.26,8.26,0,0,0-6.46-3.24c-4.08,0-7.62,2-10.65,5.93-2.05,2.56-4.24,8-6.63,16.3l-11.86,41Z" transform="translate(0.14 -23.21)"/><path d="M1033.39,129.88l-16.91,58-1.75,7.07a11.91,11.91,0,0,0-.27,1.92,2.74,2.74,0,0,0,.74,1.85,2.21,2.21,0,0,0,1.52.78c1.21,0,2.93-.91,5-2.8.91-.74,3-3.43,6.27-8l3.06,1.58c-4.14,7.54-8.56,13-13.2,16.5a25,25,0,0,1-15.13,5.19c-3.33,0-5.86-.87-7.58-2.56a8.79,8.79,0,0,1-2.62-6.53c0-2.26.9-6.47,2.79-12.63l2.09-7.08c-6.77,11.59-13.21,19.77-19.44,24.59A18.45,18.45,0,0,1,966.49,212q-8,0-11.62-6.57a30.69,30.69,0,0,1-3.57-14.89q0-12.27,7.51-28.19a70.13,70.13,0,0,1,19.71-25.6q10.05-8,18.83-8.05a11,11,0,0,1,7.85,2.83c1.95,1.92,3.43,5.35,4.34,10.37l3.17-10.74,20.65-1.21Zm-27.89,16.57c0-4.71-.74-8.11-2.19-10.2a5,5,0,0,0-4.24-2.19c-1.82,0-3.68.87-5.6,2.63-3.9,3.6-8.08,10.88-12.59,21.93s-6.77,20.51-6.77,28.56c0,3.1.5,5.29,1.51,6.67A4.24,4.24,0,0,0,979,195.9c2.63,0,5.25-1.51,8-4.51a71.71,71.71,0,0,0,10.37-15.8q8.25-16.36,8.22-29.1Z" transform="translate(0.14 -23.21)"/><path id="_1" data-name="1" d="M1104.2,188.09l2.62,2.36c-5.66,6.77-11.18,11.68-16.67,14.82a44.43,44.43,0,0,1-22.6,6.26,28.36,28.36,0,0,1-13.91-3.37,20.38,20.38,0,0,1-8.93-9.39,28.74,28.74,0,0,1-2.9-12.43,56.66,56.66,0,0,1,7.78-28.1,60.53,60.53,0,0,1,20.48-21.89c8.53-5.36,16.85-8.09,25-8.09q9.86,0,14.82,4.38a13.72,13.72,0,0,1,5,10.82,14.2,14.2,0,0,1-3.74,9.93c-2.49,2.73-5.26,4.11-8.35,4.11a9.2,9.2,0,0,1-6.67-2.63,8.34,8.34,0,0,1-2.67-6.19c0-3.17,1.55-5.9,4.72-8.22,2.16-1.62,3.2-3,3.2-4.25a2.85,2.85,0,0,0-1.31-2.52,7.18,7.18,0,0,0-4.52-1.42c-4.88,0-9.46,2-13.77,5.93a50.84,50.84,0,0,0-13.07,19.87,64.82,64.82,0,0,0-4.55,22.88c0,5.69,1.55,10.24,4.61,13.64a14.46,14.46,0,0,0,11,5.12,30,30,0,0,0,12.06-2.9,41,41,0,0,0,12.36-8.72Z" transform="translate(0.14 -23.21)"/><path d="M745.59,297.26l-16.91,58-1.75,7.07a11.91,11.91,0,0,0-.27,1.92,2.74,2.74,0,0,0,.74,1.85,2.19,2.19,0,0,0,1.51.78c1.22,0,2.93-.91,5.06-2.8.91-.74,3-3.43,6.26-8l3.07,1.58q-6.22,11.31-13.21,16.5A24.9,24.9,0,0,1,715,379.35c-3.34,0-5.86-.87-7.58-2.56a8.79,8.79,0,0,1-2.63-6.53c0-2.26.91-6.47,2.8-12.63l2.09-7.08c-6.77,11.59-13.21,19.77-19.44,24.59a18.45,18.45,0,0,1-11.52,4.21q-8,0-11.62-6.57a30.69,30.69,0,0,1-3.57-14.89q0-12.27,7.51-28.19a70,70,0,0,1,19.71-25.6c6.7-5.36,13-8.05,18.83-8.05a10.91,10.91,0,0,1,7.84,2.83c2,1.92,3.44,5.35,4.35,10.37l3.17-10.74,20.64-1.21ZM717.7,313.83c0-4.71-.74-8.11-2.19-10.2a5,5,0,0,0-4.25-2.19c-1.82,0-3.67.87-5.59,2.63-3.91,3.6-8.08,10.88-12.6,21.93s-6.77,20.51-6.77,28.56c0,3.1.51,5.29,1.52,6.67a4.23,4.23,0,0,0,3.37,2c2.62,0,5.25-1.51,7.95-4.51A72.06,72.06,0,0,0,709.51,343q8.24-16.37,8.22-29.1Z" transform="translate(0.14 -23.21)"/><path d="M16,202.51l30.45-5.26a88.84,88.84,0,0,1,11.69,28.6A213.21,213.21,0,0,1,71,208.13c3.91-4.51,7.11-7.48,9.63-8.82a16.64,16.64,0,0,1,8.09-2.06c3.2,0,5.66.88,7.34,2.63a9.64,9.64,0,0,1,2.6,7,9.37,9.37,0,0,1-2.6,6.84,8.48,8.48,0,0,1-6.4,2.69,25.78,25.78,0,0,1-6.4-1,24.6,24.6,0,0,0-5-1,11.31,11.31,0,0,0-7,2.63c-3,2.39-6.77,7.48-11.15,15.26Q67.59,258.5,72,264.22c1.75,2.25,3.5,3.4,5.32,3.4a6.66,6.66,0,0,0,3.94-1.15c1.69-1.21,4.25-4.24,7.78-9.12l3.14,1.81c-5.13,8.29-10.11,14.08-15,17.45a19,19,0,0,1-11,3.94,16.79,16.79,0,0,1-9.29-2.45A20.84,20.84,0,0,1,50.36,270c-1.92-3.74-4.21-9.77-6.81-18-6.8,8.65-12.12,15-16,19s-7.07,6.57-9.63,7.82a18.92,18.92,0,0,1-8.19,1.81,9.76,9.76,0,0,1-7.2-2.62,9,9,0,0,1-2.67-6.81,9.84,9.84,0,0,1,2.87-7.31A10,10,0,0,1,10,260.92a11.92,11.92,0,0,1,5.32,1.41c2.93,1.42,5,2.09,6.27,2.09a9.71,9.71,0,0,0,4.51-1.05q2.63-1.31,6.64-5.69c1.65-1.78,4.61-5.62,9-11.48Q33.39,215.12,28.67,209a9,9,0,0,0-7.52-3.94,32.54,32.54,0,0,0-5.76.67l.61-3.3Z" transform="translate(0.14 -23.21)"/><polygon class="cls-1" points="761.13 164.88 761.13 153.88 823.13 153.88 823.13 164.88 761.13 164.88"/><polygon points="246.13 132.88 246.13 121.88 308.13 121.88 308.13 132.88 246.13 132.88"/><polygon class="cls-1" points="416.13 164.88 416.13 153.88 478.13 153.88 478.13 164.88 416.13 164.88"/><polygon class="cls-2" points="440.13 151.88 440.13 130.88 419.13 130.88 419.13 116.88 440.13 116.88 440.13 95.88 454.13 95.88 454.13 116.88 475.13 116.88 475.13 130.88 454.13 130.88 454.13 151.88 440.13 151.88"/><path class="cls-3" d="M127,234.09v-14h74v14Zm0,25v-14h74v14Z" transform="translate(0.14 -23.21)"/><path d="M910,212.09v-23H863V169.45l50.34-74.36H932v74h14v20H932v23Zm0-43V129.31l-26.75,39.78Z" transform="translate(0.14 -23.21)"/><path d="M654,362.09v21H574.81a54.81,54.81,0,0,1,7.74-22.57q6.44-10.63,25.36-28.26Q623.2,318,626.66,313c3.1-4.67,4.67-9.27,4.67-13.84,0-5-1.33-8.9-4.06-11.59s-6.44-4.06-11.21-4.06-8.46,1.44-11.25,4.27-4.4,7.56-4.84,14.14l-22.5-2.25c1.33-12.44,5.55-21.34,12.61-26.79s15.92-8.12,26.52-8.12c11.63,0,20.76,3.17,27.41,9.41a30.88,30.88,0,0,1,10,23.42,40.63,40.63,0,0,1-2.87,15.14,61.68,61.68,0,0,1-9,15.07c-2.73,3.48-7.67,8.52-14.8,15s-11.66,10.91-13.57,13a39.12,39.12,0,0,0-4.63,6.27H654Z" transform="translate(0.14 -23.21)"/><path class="cls-4" d="M756,112.09v14H703.17a36.51,36.51,0,0,1,5.18-15c2.84-4.74,8.52-11,16.94-18.84,6.82-6.32,11-10.63,12.5-12.87a16.57,16.57,0,0,0,3.11-9.22c0-3.34-.9-6-2.71-7.75a11.52,11.52,0,0,0-15,.13c-1.84,1.91-2.94,5-3.21,9.46l-15-1.5Q706.33,58,713.4,52.58t17.71-5.41c7.75,0,13.86,2.1,18.27,6.28A20.51,20.51,0,0,1,756,69.05a26.94,26.94,0,0,1-1.9,10.09,41.41,41.41,0,0,1-6,10.06,94.55,94.55,0,0,1-9.85,10c-4.75,4.35-7.79,7.29-9.06,8.69a26.88,26.88,0,0,0-3.1,4.18H756Z" transform="translate(0.14 -23.21)"/><rect class="cls-5" x="243.64" y="209.37" width="895" height="14"/><polygon class="cls-4" points="542.91 109 513.07 147.85 518.86 151.85 532.85 133.69 555.26 186.88 561.87 186.88 628.13 9.88 713.13 9.88 713.13 0.88 621.13 0.88 562.89 156.46 542.91 109"/><line class="cls-6" x1="621.14" y1="4.87" x2="1129.14" y2="4.87"/><rect class="cls-5" x="1339.72" y="238.61" width="387.42" height="10.19"/><path d="M1197.57,240.3l21.55-3.84a66.18,66.18,0,0,1,8.27,20.91,157.7,157.7,0,0,1,9.13-13c2.77-3.3,5-5.46,6.82-6.45a11.43,11.43,0,0,1,5.72-1.5,6.79,6.79,0,0,1,5.2,1.92,7.22,7.22,0,0,1,1.83,5.15,7,7,0,0,1-1.83,5,5.94,5.94,0,0,1-4.53,2,17.56,17.56,0,0,1-4.53-.74,17,17,0,0,0-3.55-.74,7.89,7.89,0,0,0-4.94,1.92c-2.14,1.75-4.79,5.47-7.89,11.16q5.25,19.14,8.39,23.33c1.24,1.65,2.48,2.49,3.77,2.49a4.7,4.7,0,0,0,2.79-.84c1.19-.89,3-3.11,5.5-6.68l2.22,1.33c-3.62,6.06-7.15,10.3-10.61,12.76a13.17,13.17,0,0,1-7.77,2.88,11.6,11.6,0,0,1-6.58-1.79,15.26,15.26,0,0,1-4.65-5.94,91.9,91.9,0,0,1-4.81-13.18c-4.82,6.33-8.58,11-11.33,13.87a27.54,27.54,0,0,1-6.81,5.71,13,13,0,0,1-5.8,1.33,6.8,6.8,0,0,1-5.1-1.92,6.72,6.72,0,0,1-1.88-5,7.35,7.35,0,0,1,2-5.35,7,7,0,0,1,5.18-2.12,8.18,8.18,0,0,1,3.76,1,11.87,11.87,0,0,0,4.44,1.53,6.77,6.77,0,0,0,3.19-.77,18.34,18.34,0,0,0,4.7-4.16c1.17-1.31,3.26-4.11,6.36-8.4q-5.92-22.72-9.27-27.17a6.32,6.32,0,0,0-5.32-2.88,21.84,21.84,0,0,0-4.07.49l.43-2.41Z" transform="translate(0.14 -23.21)"/><path class="cls-3" d="M1276.12,263.4V253.16h52.37V263.4Zm0,18.28V271.44h52.37v10.24Z" transform="translate(0.14 -23.21)"/><path d="M1427.57,163.14l-10.15,35.38c3.08-3.35,5.67-5.59,7.73-6.71a14.12,14.12,0,0,1,6.75-1.67c4.72,0,8.21,1.7,10.55,5.08a20.07,20.07,0,0,1,3.51,11.69q0,15.85-11.52,28.29-10.2,11-23.23,11-9.69,0-20.47-5.69l18-62.3a26.18,26.18,0,0,0,1.29-6,2.64,2.64,0,0,0-1.18-2.24,7.89,7.89,0,0,0-5-1l.63-2.36,19.61-3.44h3.51ZM1405,241.2a9.37,9.37,0,0,0,5,1.77,10.3,10.3,0,0,0,5.21-1.22c2.25-1.34,4.58-3.74,7-7.23a48.38,48.38,0,0,0,6.14-12.63,46.7,46.7,0,0,0,2.47-14.74q0-4.17-1.88-6.32a5.58,5.58,0,0,0-4.35-2.18c-2.75,0-5.13,1.34-7.17,4-1.38,1.73-2.85,5.4-4.46,11l-8,27.58Z" transform="translate(0.14 -23.21)"/><path d="M1665.51,191.26l-11.38,39-1.18,4.76a8.43,8.43,0,0,0-.18,1.29,1.83,1.83,0,0,0,.5,1.25,1.49,1.49,0,0,0,1,.52c.82,0,2-.61,3.4-1.88a43.15,43.15,0,0,0,4.22-5.39l2.06,1.06c-2.79,5.08-5.76,8.77-8.89,11.11a16.8,16.8,0,0,1-10.18,3.49,7,7,0,0,1-5.1-1.72,6,6,0,0,1-1.76-4.4c0-1.52.61-4.35,1.88-8.5l1.4-4.76c-4.55,7.8-8.88,13.3-13.08,16.55a12.44,12.44,0,0,1-7.75,2.83,8.24,8.24,0,0,1-7.82-4.42,20.65,20.65,0,0,1-2.4-10q0-8.26,5-19a47.15,47.15,0,0,1,13.26-17.23q6.76-5.42,12.67-5.42a7.38,7.38,0,0,1,5.29,1.9c1.31,1.29,2.31,3.61,2.92,7l2.13-7.23,13.9-.81Zm-18.77,11.16c0-3.18-.5-5.47-1.47-6.87a3.35,3.35,0,0,0-2.86-1.47,5.72,5.72,0,0,0-3.76,1.76c-2.63,2.43-5.44,7.33-8.48,14.76s-4.56,13.81-4.56,19.23a7.65,7.65,0,0,0,1,4.48,2.86,2.86,0,0,0,2.27,1.39c1.77,0,3.54-1,5.35-3a48.45,48.45,0,0,0,7-10.63q5.55-11,5.53-19.59Z" transform="translate(0.14 -23.21)"/><path id="_1-2" data-name="1" d="M1713.16,230.44l1.77,1.58a43,43,0,0,1-11.22,10,29.92,29.92,0,0,1-15.21,4.21,19.18,19.18,0,0,1-9.36-2.26,13.78,13.78,0,0,1-6-6.33,19.34,19.34,0,0,1-2-8.36,38,38,0,0,1,5.24-18.91,40.63,40.63,0,0,1,13.78-14.73c5.73-3.61,11.33-5.44,16.84-5.44,4.42,0,7.75,1,10,2.94a9.26,9.26,0,0,1,3.35,7.28,9.55,9.55,0,0,1-2.52,6.69,7.47,7.47,0,0,1-5.62,2.76,6.22,6.22,0,0,1-4.49-1.77,5.62,5.62,0,0,1-1.79-4.17c0-2.13,1-4,3.18-5.53,1.45-1.09,2.15-2,2.15-2.85a1.91,1.91,0,0,0-.88-1.7,4.78,4.78,0,0,0-3-1,13.48,13.48,0,0,0-9.27,4,34.4,34.4,0,0,0-8.8,13.38,43.7,43.7,0,0,0-3.06,15.39,13.17,13.17,0,0,0,3.11,9.18,9.71,9.71,0,0,0,7.41,3.45,20.24,20.24,0,0,0,8.12-1.95,27.42,27.42,0,0,0,8.31-5.87Z" transform="translate(0.14 -23.21)"/><polygon class="cls-1" points="1482.33 207.22 1482.33 199.82 1524.06 199.82 1524.06 207.22 1482.33 207.22"/><path d="M1582.47,246.59V231.11h-31.63V217.89l33.88-50h12.56v49.8h9.42v13.46h-9.42v15.48Zm0-28.94V190.88l-18,26.77Z" transform="translate(0.14 -23.21)"/><path class="cls-4" d="M1478.83,179.29v9.42h-35.55a24.48,24.48,0,0,1,3.49-10.12c1.91-3.19,5.73-7.42,11.4-12.68,4.58-4.25,7.37-7.15,8.41-8.66a11.18,11.18,0,0,0,2.09-6.2,7.1,7.1,0,0,0-1.82-5.22,6.85,6.85,0,0,0-5-1.82,6.78,6.78,0,0,0-5.06,1.91c-1.24,1.28-2,3.4-2.16,6.36l-10.09-1q.9-8.36,5.66-12a19,19,0,0,1,11.92-3.64c5.22,0,9.33,1.42,12.3,4.23a13.8,13.8,0,0,1,4.47,10.5,18.06,18.06,0,0,1-1.28,6.79,27.49,27.49,0,0,1-4,6.77,63.94,63.94,0,0,1-6.63,6.74c-3.19,2.93-5.24,4.9-6.09,5.85a18,18,0,0,0-2.09,2.81h20.12Z" transform="translate(0.14 -23.21)"/><polygon class="cls-4" points="1335.47 169.62 1315.39 195.77 1319.28 198.46 1328.7 186.24 1343.78 222.03 1348.23 222.03 1392.82 102.91 1450.03 102.91 1450.03 96.85 1388.11 96.85 1348.92 201.56 1335.47 169.62"/><line class="cls-6" x1="1388.11" y1="99.55" x2="1729.99" y2="99.55"/><path d="M1562.29,310l-14.15,48.54-1.46,5.92a10.21,10.21,0,0,0-.23,1.61,2.32,2.32,0,0,0,.62,1.55,1.87,1.87,0,0,0,1.27.65c1,0,2.45-.76,4.23-2.34.76-.62,2.48-2.88,5.24-6.71l2.57,1.32c-3.47,6.32-7.16,10.91-11.05,13.82a20.89,20.89,0,0,1-12.66,4.34c-2.79,0-4.91-.73-6.34-2.14a7.34,7.34,0,0,1-2.2-5.47c0-1.89.76-5.42,2.34-10.57l1.74-5.92c-5.66,9.69-11,16.54-16.26,20.57a15.49,15.49,0,0,1-9.64,3.53q-6.72,0-9.73-5.5a25.71,25.71,0,0,1-3-12.46q0-10.27,6.29-23.59a58.61,58.61,0,0,1,16.49-21.43c5.61-4.48,10.85-6.74,15.76-6.74a9.17,9.17,0,0,1,6.57,2.37c1.63,1.61,2.87,4.48,3.63,8.68l2.65-9,17.29-1ZM1539,323.89c0-3.95-.62-6.8-1.83-8.54a4.15,4.15,0,0,0-3.55-1.84,7.1,7.1,0,0,0-4.68,2.2c-3.27,3-6.77,9.11-10.55,18.35s-5.66,17.17-5.66,23.91c0,2.59.42,4.43,1.27,5.58a3.53,3.53,0,0,0,2.82,1.72c2.2,0,4.39-1.27,6.65-3.78a60.07,60.07,0,0,0,8.68-13.22q6.9-13.69,6.88-24.35Z" transform="translate(0.14 -23.21)"/><path d="M1485.65,364.27v17.57h-66.28a45.94,45.94,0,0,1,6.48-18.88q5.39-8.91,21.22-23.65,12.79-11.91,15.69-16.15a20.85,20.85,0,0,0,3.91-11.58c0-4.2-1.11-7.45-3.39-9.71s-5.39-3.39-9.39-3.39a12.63,12.63,0,0,0-9.41,3.57c-2.31,2.39-3.68,6.33-4.06,11.84L1421.6,312c1.11-10.41,4.65-17.86,10.55-22.42s13.32-6.79,22.2-6.79c9.73,0,17.37,2.65,22.94,7.87a25.86,25.86,0,0,1,8.33,19.6,34,34,0,0,1-2.4,12.67,51.65,51.65,0,0,1-7.56,12.61,119.3,119.3,0,0,1-12.38,12.58c-6,5.48-9.76,9.13-11.36,10.9a33.11,33.11,0,0,0-3.88,5.25h37.61Z" transform="translate(0.14 -23.21)"/></svg>