<?xml version="1.0" encoding="UTF-8"?>
<!DOCTYPE svg PUBLIC "-//W3C//DTD SVG 1.1//EN" "http://www.w3.org/Graphics/SVG/1.1/DTD/svg11.dtd">
<!-- Creator: CorelDRAW X5 -->
<svg xmlns="http://www.w3.org/2000/svg" xml:space="preserve" width="401.692mm" height="127.031mm" style="shape-rendering:geometricPrecision; text-rendering:geometricPrecision; image-rendering:optimizeQuality; fill-rule:evenodd; clip-rule:evenodd" viewBox="0 0 33803 10690" xmlns:xlink="http://www.w3.org/1999/xlink">
 <defs>
  <style type="text/css">
   <![CDATA[
    .str0 {stroke:black;stroke-width:16.8303}
    .str1 {stroke:#006600;stroke-width:289.447}
    .fil7 {fill:none}
    .fil6 {fill:yellow}
    .fil0 {fill:black;fill-rule:nonzero}
    .fil3 {fill:blue;fill-rule:nonzero}
    .fil5 {fill:#006600;fill-rule:nonzero}
    .fil4 {fill:red;fill-rule:nonzero}
    .fil1 {fill:#FF6633;fill-rule:nonzero}
    .fil2 {fill:black;fill-rule:nonzero}
   ]]>
  </style>
 </defs>
 <g id="Layer_x0020_1">
  <metadata id="CorelCorpID_0Corel-Layer"/>
  <path class="fil0" d="M20182 1946l-448 1561c136,-148 250,-247 341,-296 92,-49 191,-74 298,-74 208,0 362,75 465,224 103,149 155,321 155,516 0,466 -170,882 -508,1248 -300,323 -642,484 -1025,484 -285,0 -586,-84 -903,-251l792 -2748c38,-129 57,-218 57,-266 0,-42 -18,-74 -52,-99 -49,-34 -122,-49 -220,-43l28 -104 865 -152 156 0zm-994 3438c80,52 154,78 220,78 91,0 168,-18 230,-54 99,-59 202,-165 309,-319 108,-154 199,-339 271,-557 72,-217 109,-434 109,-650 0,-123 -28,-216 -83,-279 -56,-65 -119,-96 -192,-96 -121,0 -226,59 -316,176 -61,76 -126,238 -197,484l-352 1217z"/>
  <path class="fil0" d="M10773 1946l-448 1561c136,-148 250,-247 341,-296 92,-49 191,-74 298,-74 208,0 362,75 465,224 103,149 155,321 155,516 0,466 -170,882 -508,1248 -300,323 -642,484 -1025,484 -285,0 -586,-84 -903,-251l792 -2748c38,-129 57,-218 57,-266 0,-42 -18,-74 -52,-99 -49,-34 -122,-49 -220,-43l28 -104 865 -152 156 0zm-994 3438c80,52 154,78 220,78 91,0 168,-18 230,-54 99,-59 202,-165 309,-319 108,-154 199,-339 271,-557 72,-217 109,-434 109,-650 0,-123 -28,-216 -83,-279 -56,-65 -119,-96 -192,-96 -121,0 -226,59 -316,176 -61,76 -126,238 -197,484l-352 1217z"/>
  <path class="fil0" d="M30678 3173l-502 1722 -52 210c-5,26 -8,45 -8,57 0,21 8,39 22,55 15,15 30,23 45,23 36,0 87,-27 150,-83 27,-22 88,-102 186,-238l91 47c-123,224 -254,387 -392,490 -139,103 -289,154 -449,154 -99,0 -174,-26 -225,-76 -52,-51 -78,-116 -78,-194 0,-67 27,-192 83,-375l62 -210c-201,344 -392,587 -577,730 -107,83 -221,125 -342,125 -159,0 -274,-65 -345,-195 -71,-131 -106,-278 -106,-442 0,-243 74,-522 223,-837 148,-316 344,-568 585,-760 199,-159 385,-239 559,-239 96,0 174,28 233,84 58,57 102,159 129,308l94 -319 613 -36zm-828 492c0,-140 -22,-241 -65,-303 -31,-43 -73,-65 -126,-65 -54,0 -109,26 -166,78 -116,107 -240,323 -374,651 -133,327 -201,609 -201,848 0,92 15,157 45,198 30,41 64,61 100,61 78,0 156,-45 236,-134 113,-128 217,-285 308,-469 163,-324 244,-612 244,-864z"/>
  <path id="1" class="fil0" d="M32780 4913l78 70c-168,201 -332,347 -495,440 -216,125 -439,186 -671,186 -155,0 -293,-34 -413,-100 -120,-66 -209,-159 -265,-279 -57,-120 -86,-243 -86,-369 0,-283 77,-561 231,-834 154,-274 356,-490 608,-650 253,-159 500,-240 743,-240 195,0 342,43 440,130 99,86 148,193 148,321 0,116 -37,214 -111,295 -74,81 -156,122 -248,122 -80,0 -145,-27 -198,-78 -53,-52 -79,-113 -79,-184 0,-94 46,-175 140,-244 64,-48 95,-90 95,-126 0,-31 -12,-57 -39,-75 -34,-27 -80,-42 -134,-42 -145,0 -281,58 -409,176 -169,156 -299,353 -388,590 -90,239 -135,465 -135,679 0,169 46,304 137,405 92,101 201,152 327,152 110,0 230,-29 358,-86 129,-57 251,-143 367,-259z"/>
  <path class="fil0" d="M22134 8142l-502 1722 -52 210c-5,26 -8,45 -8,57 0,21 8,39 22,55 15,15 30,23 45,23 36,0 87,-27 150,-83 27,-22 88,-102 186,-238l91 47c-123,224 -254,387 -392,490 -139,103 -289,154 -449,154 -99,0 -174,-26 -225,-76 -52,-51 -78,-116 -78,-194 0,-67 27,-192 83,-375l62 -210c-201,344 -392,587 -577,730 -107,83 -221,125 -342,125 -159,0 -274,-65 -345,-195 -71,-131 -106,-278 -106,-442 0,-243 74,-522 223,-837 148,-316 344,-568 585,-760 199,-159 385,-239 559,-239 96,0 174,28 233,84 58,57 102,159 129,308l94 -319 613 -36zm-828 492c0,-140 -22,-241 -65,-303 -31,-43 -73,-65 -126,-65 -54,0 -109,26 -166,78 -116,107 -240,323 -374,651 -133,327 -201,609 -201,848 0,92 15,157 45,198 30,41 64,61 100,61 78,0 156,-45 236,-134 113,-128 217,-285 308,-469 163,-324 244,-612 244,-864z"/>
  <path class="fil0" d="M481 5329l904 -156c163,257 279,541 347,849 169,-250 296,-425 383,-526 116,-134 211,-222 286,-262 75,-41 155,-61 240,-61 95,0 168,26 218,78 51,52 77,122 77,209 0,83 -26,151 -77,203 -50,53 -114,80 -190,80 -55,0 -118,-11 -190,-30 -72,-19 -121,-30 -149,-30 -72,0 -141,27 -207,78 -90,71 -201,222 -331,453 147,518 264,833 352,947 52,67 104,101 158,101 45,0 84,-11 117,-34 50,-36 126,-126 231,-271l93 54c-152,246 -300,418 -445,518 -110,78 -219,117 -326,117 -110,0 -202,-25 -276,-73 -73,-49 -139,-130 -195,-241 -57,-111 -125,-290 -202,-535 -202,257 -360,445 -475,563 -115,118 -210,195 -286,232 -76,36 -157,54 -243,54 -90,0 -162,-26 -214,-78 -53,-51 -79,-119 -79,-202 0,-88 28,-161 85,-217 57,-57 130,-86 217,-86 47,0 100,13 158,42 87,42 148,62 186,62 50,0 95,-11 134,-31 52,-26 118,-82 197,-169 49,-53 137,-167 267,-341 -166,-615 -295,-983 -389,-1103 -58,-78 -133,-117 -223,-117 -46,0 -103,7 -171,20l18 -98z"/>
  <polygon class="fil1" points="22576,4919 22576,4578 24423,4578 24423,4919 "/>
  <polygon class="fil2" points="7287,3945 7287,3605 9134,3605 9134,3945 "/>
  <polygon class="fil1" points="12343,4919 12343,4578 14189,4578 14189,4919 "/>
  <polygon class="fil3" points="13049,4527 13049,3909 12427,3909 12427,3483 13049,3483 13049,2865 13464,2865 13464,3483 14088,3483 14088,3909 13464,3909 13464,4527 "/>
  <path class="fil4" d="M3779 6282l0 -418 2201 0 0 418 -2201 0zm0 720l0 -420 2201 0 0 420 -2201 0z"/>
  <path class="fil0" d="M27017 5609l0 -695 -1415 0 0 -580 1500 -2196 556 0 0 2193 429 0 0 583 -429 0 0 695 -641 0zm0 -1278l0 -1181 -794 1181 794 0z"/>
  <path class="fil0" d="M19411 10074l0 616 -2323 0c26,-233 101,-453 227,-662 126,-208 374,-485 744,-829 299,-278 482,-467 550,-566 91,-137 137,-272 137,-406 0,-147 -39,-261 -119,-340 -80,-80 -189,-119 -329,-119 -138,0 -248,42 -330,125 -81,84 -129,222 -142,415l-660 -66c39,-365 163,-626 370,-786 208,-159 467,-238 778,-238 341,0 609,93 804,276 195,184 292,413 292,687 0,155 -28,303 -84,444 -56,141 -144,288 -265,442 -80,102 -225,250 -434,441 -209,192 -342,320 -398,382 -56,63 -101,124 -136,184l1316 0z"/>
  <path class="fil5" d="M22441 2639l0 419 -1581 0c18,-158 68,-308 155,-450 85,-142 255,-330 507,-564 204,-189 328,-318 374,-385 62,-93 93,-185 93,-276 0,-100 -27,-178 -81,-232 -54,-54 -129,-81 -224,-81 -94,0 -169,28 -225,85 -55,57 -88,151 -96,283l-449 -45c27,-248 111,-426 252,-535 141,-108 318,-162 530,-162 232,0 415,63 547,188 133,125 199,281 199,467 0,106 -19,207 -57,302 -38,96 -98,196 -180,301 -55,70 -153,170 -295,300 -142,130 -233,218 -271,260 -38,43 -69,84 -93,125l896 0z"/>
  <rect class="fil6 str0" x="7214" y="6228" width="26581" height="412"/>
  <polygon class="fil5" points="16114,3230 15227,4385 15399,4504 15815,3964 16481,5545 16677,5545 18647,283 21174,283 21174,16 18439,16 16708,4641 "/>
  <line class="fil7 str1" x1="18442" y1="145" x2="33512" y2="145"/>
 </g>
<script xmlns=""/></svg>