<?xml version="1.0" encoding="UTF-8" standalone="no"?>
<!DOCTYPE svg PUBLIC "-//W3C//DTD SVG 1.1//EN" "http://www.w3.org/Graphics/SVG/1.1/DTD/svg11.dtd">
<svg xmlns="http://www.w3.org/2000/svg" xmlns:xlink="http://www.w3.org/1999/xlink" version="1.1" width="216.519pt" height="181.441pt" viewBox="0 0 216.519 181.441">
<path transform="matrix(1,0,0,-1,9.686,177.383)" stroke-width="1" stroke-linecap="butt" stroke-miterlimit="10" stroke-linejoin="miter" fill="none" stroke="#929292" d="M 0 81.46205 L 0 85.70984 M 32.37717 81.46205 L 32.37717 85.70984 M 64.75433 81.46205 L 64.75433 85.70984 M 129.50868 81.46205 L 129.50868 85.70984 M 161.88587 81.46205 L 161.88587 85.70984 M 194.26303 81.46205 L 194.26303 85.70984 "/>
<path transform="matrix(1,0,0,-1,9.686,177.383)" stroke-width="1" stroke-linecap="butt" stroke-miterlimit="10" stroke-linejoin="miter" fill="none" stroke="#929292" d="M 95.00558 2.88753 L 99.25743 2.88753 M 95.00558 29.787 L 99.25743 29.787 M 95.00558 56.68648 L 99.25743 56.68648 M 95.00558 110.48543 L 99.25743 110.48543 M 95.00558 137.3849 L 99.25743 137.3849 M 95.00558 164.28438 L 99.25743 164.28438 "/>
<path transform="matrix(1,0,0,-1,9.686,177.383)" stroke-width="1" stroke-linecap="butt" stroke-miterlimit="10" stroke-linejoin="miter" fill="none" stroke="#000000" d="M 0 83.58595 L 192.27051 83.58595 "/>
<path transform="matrix(1,0,0,-1,201.95652,93.79704)" d="M 1.99252 0 L -1.19551 1.59401 L 0 0 L -1.19551 -1.59401 "/>
<path transform="matrix(1,0,0,-1,9.686,177.383)" stroke-width="1" stroke-linecap="butt" stroke-miterlimit="10" stroke-linejoin="miter" fill="none" stroke="#000000" d="M 97.13152 2.88753 L 97.13152 162.29186 "/>
<path transform="matrix(0,-1,-1,-0,106.81752,15.091141)" d="M 1.99252 0 L -1.19551 1.59401 L 0 0 L -1.19551 -1.59401 "/>
<symbol id="font_0_1">
<path d="M .57600006 0 C .59300008 0 .611 0 .611 .019999996 C .611 .040000008 .59300008 .040000008 .57600006 .040000008 L .035000005 .040000008 C .018 .040000008 0 .040000008 0 .019999996 C 0 0 .018 0 .035000005 0 L .57600006 0 Z "/>
</symbol>
<use xlink:href="#font_0_1" transform="matrix(9.9626,0,0,-9.9626,4.147896,103.570598)"/>
<symbol id="font_1_5">
<path d="M .089999999 .35000003 L .089999999 .37400005 C .089999999 .62700006 .21400002 .66300007 .26500003 .66300007 C .28900004 .66300007 .33100004 .65700009 .35300002 .623 C .33800004 .623 .298 .623 .298 .57800009 C .298 .54700008 .32200004 .53200009 .344 .53200009 C .36 .53200009 .39000003 .54100009 .39000003 .58000007 C .39000003 .64000007 .34600003 .688 .263 .688 C .13499999 .688 0 .559 0 .33800004 C 0 .071 .116000007 0 .20900002 0 C .32000003 0 .41500003 .094000007 .41500003 .22600001 C .41500003 .35300005 .32600004 .44900004 .215 .44900004 C .14700002 .44900004 .11000001 .39800004 .089999999 .35000003 M .20900002 .028 C .146 .028 .116000007 .088 .11000001 .103 C .092 .15 .092 .23 .092 .24800001 C .092 .32600004 .124000009 .42600004 .21400002 .42600004 C .23000002 .42600004 .27600003 .42600004 .307 .36400003 C .32500003 .32700003 .32500003 .27600003 .32500003 .22700002 C .32500003 .179 .32500003 .12900001 .30800004 .093 C .27800004 .033000005 .23200003 .028 .20900002 .028 Z "/>
</symbol>
<use xlink:href="#font_1_5" transform="matrix(9.9626,0,0,-9.9626,11.48743,106.08117)"/>
<use xlink:href="#font_0_1" transform="matrix(9.9626,0,0,-9.9626,36.523897,103.570598)"/>
<symbol id="font_1_4">
<path d="M .266 .165 L .266 .078 C .266 .042000005 .26400004 .031000002 .19000001 .031000002 L .16900002 .031000002 L .16900002 0 C .21000001 .003 .26200003 .003 .30400003 .003 C .34600003 .003 .39900003 .003 .44000004 0 L .44000004 .031000002 L .41900004 .031000002 C .34500004 .031000002 .34300003 .042000005 .34300003 .078 L .34300003 .165 L .44300003 .165 L .44300003 .19600001 L .34300003 .19600001 L .34300003 .651 C .34300003 .671 .34300003 .67700007 .32700003 .67700007 C .31800003 .67700007 .31500004 .67700007 .307 .665 L 0 .19600001 L 0 .165 L .266 .165 M .272 .19600001 L .028 .19600001 L .272 .569 L .272 .19600001 Z "/>
</symbol>
<use xlink:href="#font_1_4" transform="matrix(9.9626,0,0,-9.9626,43.724954,105.86199)"/>
<use xlink:href="#font_0_1" transform="matrix(9.9626,0,0,-9.9626,68.900897,103.570598)"/>
<symbol id="font_1_3">
<path d="M .07700001 .07700001 L .18300002 .18 C .33900003 .31800003 .39900003 .372 .39900003 .47200004 C .39900003 .586 .30900003 .666 .18700002 .666 C .074 .666 0 .574 0 .485 C 0 .42900003 .05 .42900003 .053000008 .42900003 C .07000001 .42900003 .105000007 .441 .105000007 .48200003 C .105000007 .508 .08700001 .53400006 .052000006 .53400006 C .044000005 .53400006 .042000008 .53400006 .039 .53300008 C .062000004 .59800007 .11600001 .63500007 .17400001 .63500007 C .26500003 .63500007 .308 .554 .308 .47200004 C .308 .39200003 .25800003 .31300003 .20300003 .25100003 L .011000004 .037 C 0 .026 0 .024 0 0 L .37100003 0 L .39900003 .17400001 L .374 .17400001 C .36900003 .14400001 .36200003 .1 .352 .085 C .345 .07700001 .279 .07700001 .257 .07700001 L .07700001 .07700001 Z "/>
</symbol>
<use xlink:href="#font_1_3" transform="matrix(9.9626,0,0,-9.9626,76.32113,105.86199)"/>
<use xlink:href="#font_1_3" transform="matrix(9.9626,0,0,-9.9626,137.20012,105.86199)"/>
<use xlink:href="#font_1_4" transform="matrix(9.9626,0,0,-9.9626,169.35796,105.86199)"/>
<use xlink:href="#font_1_5" transform="matrix(9.9626,0,0,-9.9626,201.87343,106.08117)"/>
<use xlink:href="#font_0_1" transform="matrix(9.9626,0,0,-9.9626,89.26689,174.9986)"/>
<use xlink:href="#font_1_5" transform="matrix(9.9626,0,0,-9.9626,96.60742,177.50917)"/>
<use xlink:href="#font_0_1" transform="matrix(9.9626,0,0,-9.9626,89.26689,148.0996)"/>
<use xlink:href="#font_1_4" transform="matrix(9.9626,0,0,-9.9626,96.46795,150.39099)"/>
<use xlink:href="#font_0_1" transform="matrix(9.9626,0,0,-9.9626,89.26689,121.20059)"/>
<use xlink:href="#font_1_3" transform="matrix(9.9626,0,0,-9.9626,96.687129,123.49199)"/>
<use xlink:href="#font_1_3" transform="matrix(9.9626,0,0,-9.9626,96.687129,70.10899)"/>
<use xlink:href="#font_1_4" transform="matrix(9.9626,0,0,-9.9626,96.46795,43.20999)"/>
<use xlink:href="#font_1_5" transform="matrix(9.9626,0,0,-9.9626,96.60742,16.530167)"/>
<clipPath id="cp2">
<path transform="matrix(1,0,0,-1,9.686,177.383)" d="M 0 2.88753 L 194.26303 2.88753 L 194.26303 164.28438 L 0 164.28438 Z "/>
</clipPath>
<g clip-path="url(#cp2)">
<path transform="matrix(1,0,0,-1,9.686,177.383)" stroke-width="1.19553" stroke-linecap="butt" stroke-miterlimit="10" stroke-linejoin="miter" fill="none" stroke="#000080" d="M 0 83.6192 C 0 83.6192 5.84816 83.633 8.09428 83.64096 C 10.34041 83.64893 13.94246 83.66357 16.18858 83.67667 C 18.43471 83.68976 22.03674 83.71379 24.28287 83.73537 C 26.52899 83.75693 30.13104 83.79662 32.37717 83.83223 C 34.62329 83.86784 38.22534 83.93335 40.47147 83.9921 C 42.71758 84.05083 46.31963 84.15877 48.56575 84.2556 C 50.81187 84.35245 54.41393 84.53046 56.66005 84.69008 C 58.90617 84.8497 62.50821 85.1429 64.75433 85.40611 C 67.00046 85.66931 70.60251 86.15324 72.84863 86.58719 C 75.09476 87.02115 78.69681 87.81812 80.94293 88.53377 C 83.18906 89.2494 86.79109 90.56554 89.03722 91.74515 C 91.28334 92.92476 94.88539 95.09128 97.13152 97.03569 C 99.37764 98.98012 102.97969 102.55275 105.2258 105.75926 C 107.47192 108.96576 111.07397 114.86023 113.3201 120.14606 C 115.56622 125.4319 119.16827 135.13965 121.4144 143.8559 C 123.66052 152.57216 127.26256 168.59859 129.50868 182.96678 C 131.7548 197.33498 135.35686 223.71866 137.60298 247.41187 C 139.8491 271.1051 143.45116 314.6765 145.69728 353.731 C 147.94339 392.7855 151.54544 464.48448 153.79157 528.88937 C 156.03769 593.2942 159.63974 711.763 161.88587 817.91647 C 164.13199 924.06997 167.73403 1118.899 169.98015 1293.9696 C 172.22628 1469.0402 175.82833 1791.1553 178.07445 2079.7032 C 180.32057 2368.2508 183.92263 2897.7293 186.16875 3373.6204 C 188.41486 3849.5118 194.26303 5509.594 194.26303 5509.594 "/>
<path transform="matrix(1,0,0,-1,9.686,177.383)" stroke-width="1.19553" stroke-linecap="butt" stroke-miterlimit="10" stroke-linejoin="miter" fill="none" stroke="#800000" d="M 97.16388 0 C 97.16388 0 97.8725 38.62418 98.14467 46.3135 C 98.41682 54.00284 98.85329 53.40964 99.12546 55.41942 C 99.39761 57.42918 99.83408 59.52034 100.10623 60.7986 C 100.3784 62.07686 100.81487 63.68703 101.08702 64.63223 C 101.35918 65.57745 101.79565 66.85953 102.06781 67.61111 C 102.33997 68.3627 102.77643 69.42476 103.0486 70.04921 C 103.32076 70.67366 103.75722 71.57747 104.02937 72.11172 C 104.30154 72.646 104.738 73.43286 105.01016 73.89987 C 105.28233 74.36687 105.7188 75.06287 105.99095 75.47765 C 106.2631 75.89244 106.69958 76.5162 106.97174 76.8894 C 107.2439 77.26262 107.68036 77.82852 107.95253 78.16756 C 108.22469 78.50659 108.66115 79.02245 108.9333 79.33304 C 109.20547 79.64363 109.64194 80.119 109.9141 80.40617 C 110.18626 80.69334 110.62273 81.13603 110.89488 81.40276 C 111.16704 81.66948 111.6035 82.0799 111.87567 82.32852 C 112.14783 82.57715 112.58429 82.96165 112.85646 83.1948 C 113.12862 83.42793 113.56508 83.78955 113.83723 84.00893 C 114.1094 84.22829 114.54585 84.56873 114.81801 84.77586 C 115.09018 84.983 115.52664 85.30565 115.7988 85.50195 C 116.07095 85.69826 116.50742 86.00424 116.77959 86.19069 C 117.05174 86.37715 117.4882 86.66824 117.76038 86.84578 C 118.03253 87.0233 118.469 87.3008 118.74115 87.47028 C 119.01332 87.63974 119.44978 87.90515 119.72194 88.06729 C 119.99411 88.22942 120.43056 88.48358 120.70271 88.63884 C 120.97487 88.7941 121.41133 89.0373 121.6835 89.18639 C 121.95566 89.33546 122.39212 89.5699 122.66429 89.71341 C 122.93645 89.8569 123.37291 90.0825 123.64507 90.22072 C 123.91724 90.35895 124.3537 90.5765 124.62585 90.70958 C 124.89801 90.84264 125.33449 91.05138 125.60664 91.17975 C 125.8788 91.30814 126.31525 91.51047 126.58742 91.63495 C 126.85957 91.75945 127.29604 91.95688 127.5682 92.07701 C 127.84036 92.19713 128.27683 92.38423 128.54898 92.5008 C 128.82115 92.61736 129.25762 92.8038 129.52977 92.9172 C 129.80193 93.03061 130.2384 93.20857 130.51056 93.31822 C 130.78272 93.42787 131.21918 93.60101 131.49135 93.70752 C 131.7635 93.81404 132.19995 93.98235 132.47212 94.08597 C 132.74428 94.18958 133.18074 94.3535 133.4529 94.45436 C 133.72507 94.5552 134.16153 94.71468 134.43369 94.81288 C 134.70584 94.91109 135.14232 95.06654 135.41448 95.16217 C 135.68663 95.25781 136.1231 95.40909 136.39527 95.50224 C 136.66742 95.5954 137.10387 95.74268 137.37602 95.83368 C 137.6482 95.92467 138.08466 96.06927 138.35681 96.15814 C 138.62899 96.24701 139.06545 96.38756 139.3376 96.4742 C 139.60976 96.56084 140.04624 96.6979 140.31839 96.78264 C 140.59055 96.86739 141.02701 97.00204 141.29918 97.08495 C 141.57134 97.16786 142.0078 97.29927 142.27996 97.38026 C 142.55213 97.46126 142.98857 97.58946 143.26073 97.66881 C 143.5329 97.74817 143.96936 97.87454 144.24152 97.95224 C 144.51367 98.02994 144.95014 98.15279 145.2223 98.22888 C 145.49446 98.30498 145.93093 98.42615 146.2031 98.5008 C 146.47525 98.57545 146.91172 98.69395 147.18387 98.76698 C 147.45604 98.84001 147.8925 98.95549 148.16466 99.02722 C 148.43683 99.09894 148.87328 99.21356 149.14543 99.28395 C 149.41759 99.35432 149.85405 99.46548 150.12622 99.53453 C 150.39838 99.60358 150.83484 99.71371 151.10701 99.78163 C 151.37917 99.84953 151.81563 99.95743 152.08779 100.02399 C 152.35996 100.09056 152.79642 100.19615 153.06858 100.26144 C 153.34075 100.32674 153.7772 100.43024 154.04936 100.49458 C 154.32152 100.55893 154.75797 100.66208 155.03014 100.72527 C 155.30229 100.78844 155.73876 100.88771 156.01093 100.94998 C 156.28308 101.01224 156.71955 101.11282 156.9917 101.17409 C 157.26387 101.23535 157.70034 101.3317 157.97249 101.39162 C 158.24466 101.45155 158.68112 101.54692 158.95328 101.6061 C 159.22544 101.66525 159.66188 101.75992 159.93405 101.81808 C 160.2062 101.87625 160.64267 101.96776 160.91484 102.02536 C 161.187 102.08296 161.62346 102.1764 161.89562 102.23326 C 162.16779 102.29012 162.60425 102.37958 162.8764 102.43521 C 163.14856 102.49084 163.58504 102.57945 163.8572 102.63428 C 164.12935 102.68912 164.56581 102.77643 164.83798 102.83047 C 165.11014 102.88452 165.54659 102.9705 165.81876 103.0238 C 166.09091 103.0771 166.52738 103.16214 166.79953 103.21466 C 167.0717 103.26718 167.50817 103.35062 167.78032 103.40244 C 168.05248 103.45425 168.48896 103.53706 168.76111 103.58818 C 169.03327 103.63928 169.46973 103.72043 169.7419 103.77083 C 170.01406 103.82121 170.45052 103.90166 170.72267 103.95143 C 170.99485 104.00119 171.43129 104.08047 171.70345 104.12956 C 171.97562 104.17865 172.41208 104.25677 172.68424 104.30524 C 172.95639 104.3537 173.39287 104.43103 173.66503 104.47885 C 173.93718 104.52669 174.37364 104.60281 174.64582 104.65001 C 174.91797 104.69722 175.35443 104.77246 175.62659 104.81912 C 175.89876 104.86578 176.33522 104.9403 176.60738 104.98637 C 176.87955 105.03244 177.316 105.10574 177.58815 105.15118 C 177.8603 105.19662 178.29679 105.269 178.56894 105.31392 C 178.8411 105.35884 179.27756 105.4306 179.54973 105.47502 C 179.82189 105.51945 180.25835 105.59016 180.5305 105.63406 C 180.80268 105.67798 181.23914 105.74811 181.51129 105.79149 C 181.78347 105.83487 182.21993 105.90399 182.49208 105.94684 C 182.76424 105.98967 183.20069 106.05795 183.47286 106.10034 C 183.74501 106.14275 184.18148 106.21054 184.45365 106.25243 C 184.7258 106.29431 185.16226 106.36081 185.43442 106.40224 C 185.70659 106.44366 186.14305 106.50996 186.4152 106.55103 C 186.68738 106.59209 187.12384 106.65767 187.396 106.69818 C 187.66815 106.7387 188.1046 106.80298 188.37677 106.84306 C 188.64893 106.88316 189.08539 106.9474 189.35756 106.98714 C 189.62972 107.02687 190.06618 107.0904 190.33834 107.12956 C 190.6105 107.16875 191.04697 107.2307 191.31912 107.26953 C 191.5913 107.30835 192.02776 107.37094 192.29991 107.4095 C 192.57207 107.44804 193.00853 107.50943 193.2807 107.54741 C 193.55286 107.58539 194.26148 107.68327 194.26148 107.68327 "/>
<path transform="matrix(1,0,0,-1,9.686,177.383)" stroke-width="1" stroke-linecap="butt" stroke-dasharray="2.98883,2.98883" stroke-miterlimit="10" stroke-linejoin="miter" fill="none" stroke="#000000" d="M 0 2.88753 L 8.09428 9.6124 L 16.18858 16.33727 L 24.28287 23.06213 L 32.37717 29.787 L 40.47147 36.51187 L 48.56575 43.23674 L 56.66005 49.96161 L 64.75433 56.68648 L 72.84863 63.41135 L 80.94293 70.13622 L 89.03722 76.86108 L 97.13152 83.58595 L 105.2258 90.31082 L 113.3201 97.03569 L 121.4144 103.76056 L 129.50868 110.48543 L 137.60298 117.2103 L 145.69728 123.93517 L 153.79157 130.66004 L 161.88587 137.3849 L 169.98015 144.10977 L 178.07445 150.83464 L 186.16875 157.55951 L 194.26303 164.28438 "/>
<symbol id="font_3_1">
<path d="M .141 .24200002 C .17 .24200002 .24400002 .24400002 .294 .26500003 C .36400003 .29500003 .36900003 .35400004 .36900003 .36800004 C .36900003 .41200004 .331 .45300005 .26200003 .45300005 C .15100001 .45300005 0 .35600005 0 .18100001 C 0 .079 .059 0 .157 0 C .3 0 .384 .106000009 .384 .11800001 C .384 .124000009 .37800003 .13100001 .372 .13100001 C .367 .13100001 .365 .12900001 .35900004 .12100001 C .28 .022000002 .171 .022000002 .15900001 .022000002 C .081 .022000002 .072000008 .106000009 .072000008 .13800001 C .072000008 .15000002 .073 .18100001 .088 .24200002 L .141 .24200002 M .094 .26400004 C .133 .41600005 .236 .43100003 .26200003 .43100003 C .30900003 .43100003 .33600004 .40200005 .33600004 .36800004 C .33600004 .26400004 .17600002 .26400004 .135 .26400004 L .094 .26400004 Z "/>
</symbol>
<use xlink:href="#font_3_1" transform="matrix(9.9626,0,0,-9.9626,70.07028,84.015598)" fill="#000080"/>
<symbol id="font_4_1">
<path d="M .201 .116000007 C .19100002 .082 .15800002 .028 .107 .028 C .10400001 .028 .07400001 .028 .053000004 .042000005 C .094000007 .055000005 .09700001 .091 .09700001 .097 C .09700001 .119 .080000009 .134 .057000005 .134 C .029000007 .134 0 .11 0 .073 C 0 .023000002 .056 0 .10500001 0 C .15100003 0 .192 .029000003 .21700001 .071 C .241 .018000002 .296 0 .336 0 C .451 0 .512 .125 .512 .15300001 C .512 .16600001 .49900005 .16600001 .49600003 .16600001 C .48200003 .16600001 .48100005 .16100002 .47700004 .14900002 C .456 .08 .39600004 .028 .34 .028 C .3 .028 .279 .055000005 .279 .093 C .279 .119 .303 .21000001 .331 .321 C .351 .398 .39600004 .423 .42900003 .423 C .43100003 .423 .46200005 .423 .483 .409 C .451 .4 .439 .372 .439 .354 C .439 .33200003 .456 .317 .479 .317 C .50200006 .317 .535 .336 .535 .37800003 C .535 .43400003 .47100006 .451 .43100003 .451 C .381 .451 .34100003 .418 .319 .38 C .301 .421 .255 .451 .199 .451 C .087000008 .451 .023000002 .328 .023000002 .298 C .023000002 .285 .037 .285 .040000008 .285 C .053000004 .285 .054000006 .289 .059000009 .30200003 C .084 .38 .14700002 .423 .19600001 .423 C .229 .423 .256 .405 .256 .357 C .256 .337 .24400002 .287 .23500002 .25300003 L .201 .116000007 Z "/>
</symbol>
<use xlink:href="#font_4_1" transform="matrix(6.9738,0,0,-6.9738,74.58574,79.86275)" fill="#000080"/>
<symbol id="font_1_6">
<path d="M .144 .694 L 0 .683 L 0 .652 C .07000001 .652 .07800001 .64500007 .07800001 .596 L .07800001 .076000008 C .07800001 .031000002 .067 .031000002 0 .031000002 L 0 0 C .033 .001 .086 .003 .11100001 .003 C .136 .003 .185 .001 .22200004 0 L .22200004 .031000002 C .155 .031000002 .144 .031000002 .144 .076000008 L .144 .694 Z "/>
</symbol>
<symbol id="font_1_7">
<path d="M .07800001 .344 L .07800001 .076000008 C .07800001 .031000002 .067 .031000002 0 .031000002 L 0 0 C .035 .001 .08600001 .003 .113000009 .003 C .139 .003 .191 .001 .225 0 L .225 .031000002 C .158 .031000002 .147 .031000002 .147 .076000008 L .147 .26000003 C .147 .36400003 .218 .42000003 .282 .42000003 C .345 .42000003 .356 .36600004 .356 .30900003 L .356 .076000008 C .356 .031000002 .345 .031000002 .278 .031000002 L .278 0 C .31300003 .001 .36400003 .003 .391 .003 C .41700004 .003 .46900005 .001 .503 0 L .503 .031000002 C .451 .031000002 .42600004 .031000002 .425 .061000006 L .425 .252 C .425 .33800004 .425 .36900003 .39400003 .40500004 C .38000003 .42200003 .347 .44200004 .289 .44200004 C .216 .44200004 .169 .39900003 .141 .337 L .141 .44200004 L 0 .43100003 L 0 .4 C .07000001 .4 .07800001 .393 .07800001 .344 Z "/>
</symbol>
<symbol id="font_1_1">
<path d="M .23200003 .00999999 C .23200003 .012999982 .23200003 .014999986 .215 .03199999 C .09 .15799999 .058 .347 .058 .5 C .058 .674 .096 .84800007 .21900001 .97300007 C .23200003 .985 .23200003 .98700007 .23200003 .99 C .23200003 .99700006 .22800002 1 .222 1 C .21200001 1 .12200001 .93200007 .06299999 .805 C .012000002 .69500008 0 .584 0 .5 C 0 .422 .011 .301 .066 .188 C .126 .065 .21200001 0 .222 0 C .22800002 0 .23200003 .0029999912 .23200003 .00999999 Z "/>
</symbol>
<use xlink:href="#font_1_6" transform="matrix(9.9626,0,0,-9.9626,112.46076,123.187999)" fill="#800000"/>
<use xlink:href="#font_1_7" transform="matrix(9.9626,0,0,-9.9626,115.2204,123.187999)" fill="#800000"/>
<use xlink:href="#font_1_1" transform="matrix(9.9626,0,0,-9.9626,121.4271,125.67864)" fill="#800000"/>
<symbol id="font_3_2">
<path d="M .305 .31300003 C .311 .33900003 .334 .43100003 .404 .43100003 C .409 .43100003 .433 .43100003 .454 .418 C .426 .41300003 .40600003 .388 .40600003 .36400003 C .40600003 .34800003 .417 .32900004 .444 .32900004 C .46600003 .32900004 .498 .34700004 .498 .38700003 C .498 .43900005 .439 .45300005 .405 .45300005 C .347 .45300005 .312 .40000005 .3 .37700004 C .275 .44300003 .221 .45300005 .19200002 .45300005 C .08800001 .45300005 .031000002 .32400004 .031000002 .29900003 C .031000002 .28900004 .041 .28900004 .043000007 .28900004 C .051000008 .28900004 .054000006 .291 .056 .3 C .09 .40600003 .156 .43100003 .19000001 .43100003 C .209 .43100003 .244 .42200003 .244 .36400003 C .244 .33300004 .22700002 .26600004 .19000001 .126 C .17400001 .064 .13900002 .022000002 .095000009 .022000002 C .08900001 .022000002 .06600001 .022000002 .045 .035 C .07000001 .040000004 .09200001 .061 .09200001 .089 C .09200001 .116000007 .07000001 .124000009 .055000009 .124000009 C .025 .124000009 0 .098000008 0 .06600001 C 0 .020000002 .050000006 0 .094000007 0 C .16000001 0 .19600001 .07000001 .19900002 .076000008 C .21100001 .039 .24700003 0 .307 0 C .41 0 .467 .12900001 .467 .15400002 C .467 .16400002 .458 .16400002 .455 .16400002 C .446 .16400002 .444 .16000001 .442 .15300001 C .409 .046 .341 .022000002 .30900003 .022000002 C .27 .022000002 .254 .054 .254 .08800001 C .254 .11000001 .26 .13200002 .271 .17600002 L .305 .31300003 Z "/>
</symbol>
<use xlink:href="#font_3_2" transform="matrix(9.9626,0,0,-9.9626,124.59692,123.297588)" fill="#800000"/>
<symbol id="font_1_2">
<path d="M .232 .5 C .232 .578 .22100002 .699 .16600001 .81200006 C .106 .93500009 .020000004 1 .009999998 1 C .0040000008 1 0 .99600008 0 .99 C 0 .98700007 0 .985 .019000002 .967 C .117000009 .86800006 .174 .709 .174 .5 C .174 .329 .137 .153 .012999997 .026999996 C 0 .014999986 0 .012999982 0 .00999999 C 0 .003999993 .0040000008 0 .009999998 0 C .020000004 0 .11000001 .06799999 .169 .195 C .22 .305 .232 .416 .232 .5 Z "/>
</symbol>
<use xlink:href="#font_1_2" transform="matrix(9.9626,0,0,-9.9626,130.56986,125.67864)" fill="#800000"/>
</g>
<use xlink:href="#font_3_2" transform="matrix(9.9626,0,0,-9.9626,207.79291,96.03558)"/>
<symbol id="font_3_3">
<path d="M .45700003 .586 C .461 .6 .461 .602 .461 .609 C .461 .62700006 .447 .63600006 .432 .63600006 C .42200003 .63600006 .40600003 .63 .397 .615 C .395 .61 .387 .579 .38300003 .561 C .37600003 .535 .36900003 .508 .363 .48100005 L .318 .301 C .314 .286 .271 .21600002 .20500002 .21600002 C .15400002 .21600002 .143 .26000003 .143 .29700003 C .143 .34300003 .16000001 .40500004 .194 .49300004 C .21000001 .53400006 .21400002 .545 .21400002 .56500008 C .21400002 .61 .18200001 .6470001 .13200002 .6470001 C .037 .6470001 0 .50200006 0 .49300004 C 0 .48300005 .01 .48300005 .012 .48300005 C .022000002 .48300005 .023 .485 .028000003 .50100007 C .055000009 .595 .095000009 .625 .12900001 .625 C .13700001 .625 .15400002 .625 .15400002 .59300008 C .15400002 .568 .14400001 .54200008 .13700001 .523 C .097 .41700004 .079 .36 .079 .31300003 C .079 .224 .142 .194 .201 .194 C .24000003 .194 .274 .21100001 .30200003 .23900002 C .289 .187 .277 .13800001 .237 .08500001 C .21100001 .051 .17300001 .022 .127 .022 C .113000009 .022 .068 .025000006 .051000008 .06400001 C .067 .06400001 .080000009 .06400001 .094000007 .076000008 C .104 .08500001 .11400001 .098000008 .11400001 .117000009 C .11400001 .148 .087000008 .15200001 .07700001 .15200001 C .054000006 .15200001 .021 .136 .021 .087000008 C .021 .037 .065000008 0 .127 0 C .23 0 .333 .091000009 .361 .20400001 L .45700003 .586 Z "/>
</symbol>
<use xlink:href="#font_3_3" transform="matrix(9.9626,0,0,-9.9626,104.48392,9.652334)"/>
<script xmlns=""/></svg>