<svg xmlns="http://www.w3.org/2000/svg" width="258" height="100.891" viewBox="0 0 258 100.891">
  <g id="Group_106" data-name="Group 106" transform="translate(-102 -83.37)">
    <g id="Union_2" data-name="Union 2" transform="translate(110.38 114.338)" fill="#00ff17">
      <path d="M 67.04911041259766 67.42369842529297 L 9.789295196533203 67.42369842529297 C 5.769965648651123 67.42369842529297 2.500000953674316 64.15373229980469 2.500000953674316 60.13440322875977 C 2.500000953674316 59.5750846862793 2.563189029693604 59.01869583129883 2.687812566757202 58.48069763183594 L 2.805918455123901 57.97085952758789 L 2.709612607955933 57.45647430419922 C 2.570530414581299 56.71354293823242 2.500000953674316 55.95002746582031 2.500000953674316 55.18709564208984 L 2.500000953674316 14.73660182952881 C 2.500000953674316 11.46803760528564 3.772706747055054 8.395143508911133 6.083683013916016 6.083978652954102 C 8.394647598266602 3.772814035415649 11.46732997894287 2.500002145767212 14.7357063293457 2.500002145767212 C 18.00417709350586 2.500002145767212 21.07703590393066 3.772837400436401 23.38824844360352 6.084049224853516 C 25.69945907592773 8.395273208618164 26.9723072052002 11.46813201904297 26.9723072052002 14.73660182952881 L 26.9723072052002 50.34509658813477 L 26.9723072052002 52.84509658813477 L 29.4723072052002 52.84509658813477 L 67.04911041259766 52.84509658813477 C 71.06843566894531 52.84509658813477 74.33840179443359 56.11506271362305 74.33840179443359 60.13440322875977 C 74.33840179443359 64.15373229980469 71.06843566894531 67.42369842529297 67.04911041259766 67.42369842529297 Z" stroke="none"/>
      <path d="M 67.04910278320313 64.9237060546875 C 69.68992614746094 64.9237060546875 71.83840179443359 62.77523422241211 71.83840179443359 60.13440704345703 C 71.83840179443359 57.49357604980469 69.68992614746094 55.34510803222656 67.04910278320313 55.34510803222656 L 29.4723014831543 55.34510803222656 L 24.4723014831543 55.34510803222656 L 24.4723014831543 50.34510803222656 L 24.4723014831543 14.73660659790039 C 24.4723014831543 9.367820739746094 20.1044864654541 5.000006198883057 14.7357006072998 5.000006198883057 C 9.367415428161621 5.000006198883057 5.000000953674316 9.367820739746094 5.000000953674316 14.73660659790039 L 5.000000953674316 55.18710708618164 C 5.000000953674316 55.79606246948242 5.056158065795898 56.40481948852539 5.166915416717529 56.99646377563477 L 5.359515190124512 58.02520751953125 L 5.123329639434814 59.04481887817383 C 5.041501045227051 59.39812088012695 5.000000953674316 59.76470565795898 5.000000953674316 60.13440704345703 C 5.000000953674316 62.77523422241211 7.148472309112549 64.9237060546875 9.789300918579102 64.9237060546875 L 67.04910278320313 64.9237060546875 M 67.04910278320313 69.9237060546875 L 9.789300918579102 69.9237060546875 C 4.382101058959961 69.9237060546875 8.97216807516088e-07 65.54070281982422 8.97216807516088e-07 60.13440704345703 C 8.97216807516088e-07 59.37150573730469 0.08721518516540527 58.62921905517578 0.252300888299942 57.91651916503906 C 0.08674375712871552 57.03217697143555 8.97216807516088e-07 56.11949157714844 8.97216807516088e-07 55.18710708618164 L 8.97216807516088e-07 14.73660659790039 C 8.97216807516088e-07 6.597906589508057 6.597001075744629 6.355503501254134e-06 14.7357006072998 6.355503501254134e-06 C 22.8744010925293 6.355503501254134e-06 29.4723014831543 6.597906589508057 29.4723014831543 14.73660659790039 L 29.4723014831543 50.34510803222656 L 67.04910278320313 50.34510803222656 C 72.45539855957031 50.34510803222656 76.83840179443359 54.72810745239258 76.83840179443359 60.13440704345703 C 76.83840179443359 65.54070281982422 72.45539855957031 69.9237060546875 67.04910278320313 69.9237060546875 Z" stroke="none" fill="#04338d"/>
    </g>
    <g id="Union_1" data-name="Union 1" transform="translate(107.391 89.036)" fill="#ff0">
      <path d="M 51.67080307006836 71.93540954589844 C 48.54989624023438 71.93540954589844 45.61578750610352 70.72005462646484 43.40897369384766 68.51323699951172 C 41.20215606689453 66.30641174316406 39.9868049621582 63.37229919433594 39.9868049621582 60.25139236450195 L 39.9868049621582 20.84220886230469 L 39.9868049621582 18.34220886230469 L 37.4868049621582 18.34220886230469 L 10.4210958480835 18.34220886230469 C 6.053387641906738 18.34220886230469 2.500003337860107 14.78880882263184 2.500003337860107 10.42110061645508 C 2.500003337860107 6.053393363952637 6.053387641906738 2.500008583068848 10.4210958480835 2.500008583068848 L 51.67080307006836 2.500008583068848 L 92.92140197753906 2.500008583068848 C 97.28910827636719 2.500008583068848 100.8424987792969 6.053393363952637 100.8424987792969 10.42110061645508 C 100.8424987792969 14.78880882263184 97.28910827636719 18.34220886230469 92.92140197753906 18.34220886230469 L 65.855712890625 18.34220886230469 L 63.35570907592773 18.34220886230469 L 63.35570907592773 20.84220886230469 L 63.35570907592773 60.25139236450195 C 63.35570907592773 63.372314453125 62.14032745361328 66.30642700195313 59.93346405029297 68.51319122314453 C 57.72652816772461 70.72003936767578 54.79211044311523 71.93540954589844 51.67080307006836 71.93540954589844 Z" stroke="none"/>
      <path d="M 51.67079544067383 69.43540954589844 C 56.73537826538086 69.43540954589844 60.85570526123047 65.31548309326172 60.85570526123047 60.25141143798828 L 60.85570526123047 20.84221076965332 L 60.85570526123047 15.842209815979 L 65.85570526123047 15.842209815979 L 92.92140960693359 15.842209815979 C 95.91061401367188 15.842209815979 98.34250640869141 13.41031932830811 98.34250640869141 10.42110061645508 C 98.34250640869141 7.431900978088379 95.91061401367188 5.000010013580322 92.92140960693359 5.000010013580322 L 51.67079544067383 5.000010013580322 L 10.42110347747803 5.000010013580322 C 7.431885719299316 5.000010013580322 4.99999475479126 7.431900978088379 4.99999475479126 10.42110061645508 C 4.99999475479126 13.41031932830811 7.431885719299316 15.842209815979 10.42110347747803 15.842209815979 L 37.48679351806641 15.842209815979 L 42.48679351806641 15.842209815979 L 42.48679351806641 20.84221076965332 L 42.48679351806641 60.25141143798828 C 42.48679351806641 65.31548309326172 46.60672378540039 69.43540954589844 51.67079544067383 69.43540954589844 M 51.67079544067383 74.43540954589844 C 43.83719635009766 74.43540954589844 37.48679351806641 68.08499145507813 37.48679351806641 60.25141143798828 L 37.48679351806641 20.84221076965332 L 10.42110347747803 20.84221076965332 C 4.665595054626465 20.84221076965332 -5.155806320544798e-06 16.17659187316895 -5.155806320544798e-06 10.42110061645508 C -5.155806320544798e-06 4.665609836578369 4.665595054626465 1.004916066449368e-05 10.42110347747803 1.004916066449368e-05 L 51.67079544067383 1.004916066449368e-05 L 92.92140960693359 1.004916066449368e-05 C 98.67690277099609 1.004916066449368e-05 103.3425064086914 4.665609836578369 103.3425064086914 10.42110061645508 C 103.3425064086914 16.17659187316895 98.67690277099609 20.84221076965332 92.92140960693359 20.84221076965332 L 65.85570526123047 20.84221076965332 L 65.85570526123047 60.25141143798828 C 65.85570526123047 68.08499145507813 59.50530242919922 74.43540954589844 51.67079544067383 74.43540954589844 Z" stroke="none" fill="#04338d"/>
    </g>
    <text id="Math" transform="translate(186 111.37)" fill="red" font-size="60" font-family="ArialMT, Arial"><tspan x="0" y="54">Math</tspan></text>
    <rect id="Rectangle_37" data-name="Rectangle 37" width="258" height="95" transform="translate(102 83.37)" fill="none"/>
  </g>
</svg>
