<?xml version="1.0" encoding="UTF-8" standalone="no"?>
<!-- Creator: CorelDRAW -->
<svg xmlns:dc="http://purl.org/dc/elements/1.1/" xmlns:cc="http://creativecommons.org/ns#" xmlns:rdf="http://www.w3.org/1999/02/22-rdf-syntax-ns#" xmlns:svg="http://www.w3.org/2000/svg" xmlns="http://www.w3.org/2000/svg" xmlns:sodipodi="http://sodipodi.sourceforge.net/DTD/sodipodi-0.dtd" xmlns:inkscape="http://www.inkscape.org/namespaces/inkscape" xml:space="preserve" width="500px" height="463px" style="shape-rendering:geometricPrecision; text-rendering:geometricPrecision; image-rendering:optimizeQuality; fill-rule:evenodd" viewBox="0 0 500 462" id="svg9806" sodipodi:version="0.32" inkscape:version="0.47 r22583" sodipodi:docname="Icosahedron-golden-rectangles.svg" inkscape:output_extension="org.inkscape.output.svg.inkscape" version="1.1"><metadata id="metadata9864"><rdf:RDF><cc:Work rdf:about=""><dc:format>image/svg+xml</dc:format><dc:type rdf:resource="http://purl.org/dc/dcmitype/StillImage"/><dc:title/></cc:Work></rdf:RDF></metadata><sodipodi:namedview inkscape:window-height="972" inkscape:window-width="1235" inkscape:pageshadow="2" inkscape:pageopacity="0.0" guidetolerance="10.0" gridtolerance="10.0" objecttolerance="10.0" borderopacity="1.0" bordercolor="#666666" pagecolor="#ffffff" id="base" showgrid="false" inkscape:zoom="1.5211196" inkscape:cx="115.96419" inkscape:cy="291.97183" inkscape:window-x="0" inkscape:window-y="0" inkscape:current-layer="svg9806" inkscape:window-maximized="0"/>
 <defs id="defs9808"><inkscape:perspective sodipodi:type="inkscape:persp3d" inkscape:vp_x="0 : 231.5 : 1" inkscape:vp_y="0 : 1000 : 0" inkscape:vp_z="500 : 231.5 : 1" inkscape:persp3d-origin="250 : 154.33333 : 1" id="perspective52"/></defs>
 <path style="fill:#9c87e0;stroke:#000000" id="path9813" d="M 169,344 L 354,259 L 337,330 L 172,433 L 169,344 z" class="fil0 str0"/><path style="opacity:1;fill:#000000;fill-opacity:0.40384617;fill-rule:evenodd;stroke:none;stroke-width:2;stroke-linecap:round;stroke-linejoin:miter;stroke-miterlimit:4;stroke-dasharray:none;stroke-dashoffset:0;stroke-opacity:1" d="M 270.85313,337.592 L 207.08431,375.72181 L 195.25092,418.41362 L 172.04901,431.98681 L 169.57204,360.56149 L 258.36234,329.04566 L 270.85313,337.592 z" id="path10477" sodipodi:nodetypes="ccccccc"/><path style="opacity:1;fill:#000000;fill-opacity:0.40384617;fill-rule:evenodd;stroke:none;stroke-width:2;stroke-linecap:round;stroke-linejoin:miter;stroke-miterlimit:4;stroke-dasharray:none;stroke-dashoffset:0;stroke-opacity:1" d="M 243.58635,342.56627 L 264.96988,375.10643 L 304.94779,350.00402 L 266.82932,319.32329 L 243.58635,342.56627 z" id="path10479"/><path style="fill:#2f6953;stroke:#000000;fill-opacity:1" id="path9815" d="M 227,116 L 128,63 L 139,243 L 212,243 L 227,116 z" class="fil1 str0"/><path style="fill:#c4eca7;stroke:#000000" id="path9819" d="M 343,285 L 176,188 L 29,261 L 191,375 L 343,285 z" class="fil3 str0"/><path style="fill:#c4eca7;stroke:#000000" id="path9821" d="M 470,208 L 301,122 L 212,152 L 374,266 L 470,208 z" class="fil3 str0"/><path style="fill:#9c87e0;stroke:#000000" id="path9825" d="M 158,108 L 343,25 L 337,190 L 165,283 L 158,108 z" class="fil0 str0"/><path style="fill:#2f6953;stroke:#000000;fill-opacity:1" id="path9837" d="M 406,212 L 257,133 L 256,234 L 343,285 L 263,332 L 392,416 L 406,212 z" class="fil1 str0"/><path style="opacity:1;fill:#000000;fill-opacity:0.35096154;fill-rule:evenodd;stroke:none;stroke-width:2;stroke-linecap:round;stroke-linejoin:miter;stroke-miterlimit:4;stroke-dasharray:none;stroke-dashoffset:0;stroke-opacity:1" d="M 256.60241,133.37952 L 187.80321,270.04819 L 269.61847,328.15562 L 342.60141,285.15612 L 255.90512,234.25402 L 256.60241,133.37952 z" id="path9960" sodipodi:nodetypes="cccccc"/>
<path style="opacity:1;fill:#000000;fill-opacity:0.40384614;fill-rule:evenodd;stroke:none;stroke-width:2;stroke-linecap:round;stroke-linejoin:miter;stroke-miterlimit:4;stroke-dasharray:none;stroke-dashoffset:0;stroke-opacity:1" d="M 164.56024,283.06426 L 43.15217,270.97791 L 28.163874,260.96691 L 161.77108,195.67068 L 164.56024,283.06426 z" id="path10471" sodipodi:nodetypes="ccccc"/><path style="opacity:1;fill:#000000;fill-opacity:0.40384617;fill-rule:evenodd;stroke:none;stroke-width:2;stroke-linecap:round;stroke-linejoin:miter;stroke-miterlimit:4;stroke-dasharray:none;stroke-dashoffset:0;stroke-opacity:1" d="M 164.79267,283.06426 L 130.85793,210.77862 L 161.53866,195.20582 L 164.79267,283.06426 z" id="path10473" sodipodi:nodetypes="cccc"/><path style="opacity:1;fill:#000000;fill-opacity:0.40384617;fill-rule:evenodd;stroke:none;stroke-width:2;stroke-linecap:round;stroke-linejoin:miter;stroke-miterlimit:4;stroke-dasharray:none;stroke-dashoffset:0;stroke-opacity:1" d="M 158.84578,127.40643 L 132.9498,145.93072 L 137.13354,207.29217 L 161.30623,195.43825 L 158.84578,127.40643 z" id="path10475" sodipodi:nodetypes="ccccc"/><script xmlns=""/></svg>